HIERARCHY
ROOT Pelvis
{
	OFFSET 0.000000 0.941512 0.000000
	CHANNELS 6 Xposition Yposition Zposition Zrotation Yrotation Xrotation 
	JOINT Pelvis_L_Hip
	{
		OFFSET 0.000000 0.000000 0.000000
		CHANNELS 3 Zrotation Yrotation Xrotation
		JOINT L_Hip
		{
			OFFSET 0.062321 -0.080322 -0.016990
			CHANNELS 3 Zrotation Yrotation Xrotation
			JOINT L_Knee
			{
				OFFSET 0.093051 -0.381305 -0.029784
				CHANNELS 3 Zrotation Yrotation Xrotation
				JOINT L_Ankle
				{
					OFFSET -0.010371 -0.431000 -0.033614
					CHANNELS 3 Zrotation Yrotation Xrotation
					End Site #name: L_Foot
					{
						OFFSET 0.069299 -0.038670 0.119418
					}
				}
			}
		}
	}
	JOINT Pelvis_R_Hip
	{
		OFFSET 0.000000 0.000000 0.000000
		CHANNELS 3 Zrotation Yrotation Xrotation
		JOINT R_Hip
		{
			OFFSET -0.055334 -0.094904 -0.002373
			CHANNELS 3 Zrotation Yrotation Xrotation
			JOINT R_Knee
			{
				OFFSET -0.064207 -0.384370 -0.019592
				CHANNELS 3 Zrotation Yrotation Xrotation
				JOINT R_Ankle
				{
					OFFSET 0.025418 -0.419734 -0.065953
					CHANNELS 3 Zrotation Yrotation Xrotation
					End Site #name: R_Foot
					{
						OFFSET -0.057233 -0.039888 0.132134
					}
				}
			}
		}
	}
	JOINT Pelvis_Spine1
	{
		OFFSET 0.000000 0.000000 0.000000
		CHANNELS 3 Zrotation Yrotation Xrotation
		JOINT Spine1
		{
			OFFSET -0.005562 0.124093 -0.043360
			CHANNELS 3 Zrotation Yrotation Xrotation
			JOINT Spine2
			{
				OFFSET 0.012244 0.139499 0.029894
				CHANNELS 3 Zrotation Yrotation Xrotation
				JOINT Spine3
				{
					OFFSET -0.002556 0.056561 0.009225
					CHANNELS 3 Zrotation Yrotation Xrotation
					JOINT Spine3_Neck
					{
						OFFSET 0.000000 0.000000 0.000000
						CHANNELS 3 Zrotation Yrotation Xrotation
						JOINT Neck
						{
							OFFSET -0.005205 0.217920 -0.024551
							CHANNELS 3 Zrotation Yrotation Xrotation
							End Site #name: Head
							{
								OFFSET 0.002365 0.091850 0.046637
							}
						}
					}
					JOINT Spine3_L_Collar
					{
						OFFSET 0.000000 0.000000 0.000000
						CHANNELS 3 Zrotation Yrotation Xrotation
						JOINT L_Collar
						{
							OFFSET 0.072225 0.116603 -0.009480
							CHANNELS 3 Zrotation Yrotation Xrotation
							JOINT L_Shoulder
							{
								OFFSET 0.115937 -0.058643 -0.021018
								CHANNELS 3 Zrotation Yrotation Xrotation
								JOINT L_Elbow
								{
									OFFSET 0.021994 -0.254722 -0.024492
									CHANNELS 3 Zrotation Yrotation Xrotation
									End Site #name: L_Wrist
									{
										OFFSET 0.048810 -0.240214 0.103329
									}
								}
							}
						}
					}
					JOINT Spine3_R_Collar
					{
						OFFSET 0.000000 0.000000 0.000000
						CHANNELS 3 Zrotation Yrotation Xrotation
						JOINT R_Collar
						{
							OFFSET -0.073372 0.120704 -0.024611
							CHANNELS 3 Zrotation Yrotation Xrotation
							JOINT R_Shoulder
							{
								OFFSET -0.108089 -0.054969 -0.020504
								CHANNELS 3 Zrotation Yrotation Xrotation
								JOINT R_Elbow
								{
									OFFSET -0.033684 -0.260739 0.009889
									CHANNELS 3 Zrotation Yrotation Xrotation
									End Site #name: R_Wrist
									{
										OFFSET -0.067980 -0.232763 0.118463
									}
								}
							}
						}
					}
				}
			}
		}
	}
}
MOTION
Frames: 16
Frame Time: 0.041667
0.000000 0.970029 0.000000 -5.039763 -5.934733 -0.455510 0.000000 0.000000 0.000000 2.127882 0.127136 1.216279 4.183414 -0.474419 2.121909 -5.254694 -8.008454 4.566086 0.000000 0.000000 0.000000 1.695104 -0.126905 0.182897 1.077825 0.071591 4.189852 3.537496 -3.753862 10.489909 0.000000 0.000000 0.000000 5.801457 -0.752084 -3.649456 -2.778166 0.858171 5.698539 1.775184 3.197822 5.345528 0.000000 0.000000 0.000000 -9.025428 5.933451 14.298772 0.000000 0.000000 0.000000 16.968394 0.507441 3.575628 -24.037684 1.716110 -2.977678 0.089935 -1.125853 -5.651961 0.000000 0.000000 0.000000 -23.764357 10.441445 -3.150867 26.944499 -3.180585 10.580217 0.312286 2.437999 -7.463960 
0.001225 0.970149 -0.002009 -5.124636 -5.833181 -0.429238 0.000000 0.000000 0.000000 2.227887 0.045090 0.892668 4.021168 -0.473901 2.400426 -5.208366 -8.020451 4.479825 0.000000 0.000000 0.000000 1.665021 -0.098056 0.032190 1.236284 0.042165 4.203940 3.495389 -3.903774 10.543327 0.000000 0.000000 0.000000 5.393089 -0.762513 -3.016925 -2.698839 0.908209 6.589268 1.746612 3.285712 4.670328 0.000000 0.000000 0.000000 -9.460681 6.186232 14.112193 0.000000 0.000000 0.000000 16.496665 -1.064046 2.403817 -21.006429 1.319517 -3.392703 -0.008546 -1.117139 -5.387222 0.000000 0.000000 0.000000 -23.432277 11.792873 -4.345172 24.293693 -2.850532 10.269856 0.950233 3.315683 -8.971792 
0.002739 0.969929 -0.005398 -5.275170 -5.852939 -0.272236 0.000000 0.000000 0.000000 2.384663 -0.087053 0.361920 3.855460 -0.473468 2.695809 -5.127741 -7.878147 4.426484 0.000000 0.000000 0.000000 1.716378 -0.014650 -0.447314 1.360279 0.026742 4.343803 3.434030 -4.091118 10.572216 0.000000 0.000000 0.000000 5.084631 -0.867422 -1.777664 -2.912467 0.963098 6.683741 1.788268 3.445124 4.188879 0.000000 0.000000 0.000000 -9.857259 6.401425 13.781250 0.000000 0.000000 0.000000 16.476768 -3.307245 0.846155 -18.358320 0.923648 -4.073190 0.961941 -0.494292 -4.645107 0.000000 0.000000 0.000000 -24.075036 14.246302 -6.409449 22.722232 -2.448235 9.445298 1.482834 3.843497 -9.554969 
0.004674 0.969831 -0.009674 -5.414335 -5.866065 0.003287 0.000000 0.000000 0.000000 2.474052 -0.248609 -0.327575 3.752679 -0.472289 2.869034 -5.104752 -7.682007 4.496758 0.000000 0.000000 0.000000 1.757077 0.099308 -1.090246 1.430218 0.015368 4.375009 3.420632 -4.322109 10.744860 0.000000 0.000000 0.000000 4.697646 -0.997818 -0.148799 -3.301151 1.017212 6.277608 1.978105 3.727401 3.739062 0.000000 0.000000 0.000000 -10.190630 6.562127 13.447781 0.000000 0.000000 0.000000 16.710505 -5.610030 -0.726350 -16.104984 0.375876 -5.695257 2.500181 0.586241 -2.734452 0.000000 0.000000 0.000000 -25.304517 17.143253 -8.955352 22.173569 -1.966019 8.141273 1.955626 4.010750 -9.168155 
0.006927 0.970140 -0.014779 -5.597830 -5.851577 0.390029 0.000000 0.000000 0.000000 2.554630 -0.465233 -1.274287 3.740432 -0.482713 3.081843 -5.147971 -7.469976 4.683633 0.000000 0.000000 0.000000 1.901967 0.226668 -1.825664 1.379118 0.014389 4.183481 3.415293 -4.621456 11.000545 0.000000 0.000000 0.000000 4.211270 -1.134612 1.824760 -3.806523 1.070672 5.594026 2.322345 4.140040 3.431405 0.000000 0.000000 0.000000 -10.435275 6.622373 12.816779 0.000000 0.000000 0.000000 17.057772 -7.455215 -1.970806 -14.525780 -0.349088 -8.613089 4.616700 1.930491 -0.270351 0.000000 0.000000 0.000000 -26.755930 19.988157 -11.641325 22.578946 -1.346194 6.278512 2.195436 3.884650 -8.362512 
0.009571 0.970794 -0.020885 -5.899321 -5.834629 0.737483 0.000000 0.000000 0.000000 2.781724 -0.711770 -2.337898 3.666786 -0.498705 3.529423 -5.114535 -7.261856 4.743188 0.000000 0.000000 0.000000 2.133935 0.386320 -2.735244 1.387763 0.018958 4.297874 3.371669 -4.969691 11.221743 0.000000 0.000000 0.000000 3.607262 -1.292909 4.425396 -4.391828 1.125034 4.794236 2.831863 4.633182 3.342934 0.000000 0.000000 0.000000 -10.611548 6.571588 11.568995 0.000000 0.000000 0.000000 17.679734 -9.177090 -3.116234 -13.814290 -1.143845 -12.308712 7.406586 3.351494 1.626334 0.000000 0.000000 0.000000 -28.428291 22.891840 -14.607757 23.931287 -0.625981 4.131648 1.813761 3.429237 -7.712658 
0.013016 0.971234 -0.028682 -6.149583 -5.760187 1.041164 0.000000 0.000000 0.000000 3.039657 -1.013691 -3.683176 3.393450 -0.509511 4.355669 -5.038453 -7.061739 4.725476 0.000000 0.000000 0.000000 2.104945 0.676674 -4.280564 1.746903 0.009906 5.422315 3.174725 -5.497897 11.284419 0.000000 0.000000 0.000000 2.730387 -1.409589 7.676323 -4.966749 1.182575 4.128731 3.443486 5.116252 3.359588 0.000000 0.000000 0.000000 -10.805406 6.458629 9.567432 0.000000 0.000000 0.000000 18.572340 -11.270685 -4.552881 -13.209838 -1.953544 -16.304331 10.280115 4.622449 2.849592 0.000000 0.000000 0.000000 -30.155283 25.924437 -17.949715 25.554803 0.257300 1.698829 0.499373 2.484012 -7.246361 
0.017375 0.971224 -0.036998 -6.325113 -5.458700 1.730907 0.000000 0.000000 0.000000 3.178399 -1.356850 -5.267416 3.170083 -0.498224 4.685070 -5.161198 -6.969824 4.967073 0.000000 0.000000 0.000000 1.927023 1.023349 -6.116583 2.163678 -0.031749 6.299178 2.924609 -6.271220 11.493353 0.000000 0.000000 0.000000 1.696880 -1.377948 10.422421 -5.331764 1.267737 4.240848 4.119565 5.481641 3.164350 0.000000 0.000000 0.000000 -11.201649 6.474520 7.647583 0.000000 0.000000 0.000000 19.685647 -14.028956 -6.564435 -12.159532 -2.654110 -20.112248 12.802123 5.699586 4.326618 0.000000 0.000000 0.000000 -31.753567 29.096003 -21.660121 26.838695 1.270003 -0.879983 -1.965684 0.688986 -6.095822 
0.022695 0.971339 -0.044410 -6.571621 -4.972227 2.680369 0.000000 0.000000 0.000000 3.268089 -1.664511 -6.708334 3.121969 -0.472846 4.288075 -5.499698 -7.016959 5.475410 0.000000 0.000000 0.000000 1.923645 1.300972 -7.591880 2.242023 -0.055644 6.230218 2.800410 -7.034231 12.019538 0.000000 0.000000 0.000000 0.803273 -1.285686 12.453973 -5.350805 1.321475 4.752209 4.908639 5.765783 2.904883 0.000000 0.000000 0.000000 -11.879673 6.709460 6.359376 0.000000 0.000000 0.000000 21.154542 -16.903451 -8.781165 -11.238584 -3.280675 -23.812417 14.704597 6.529952 6.895148 0.000000 0.000000 0.000000 -33.229053 32.027551 -25.321377 27.555063 2.473105 -3.877365 -5.223597 -1.878152 -3.181309 
0.028203 0.971748 -0.050361 -6.878336 -4.515743 3.600604 0.000000 0.000000 0.000000 3.393612 -1.976658 -8.195306 3.094527 -0.466608 4.235261 -5.703441 -7.064996 5.761802 0.000000 0.000000 0.000000 1.983982 1.569877 -9.005707 2.251367 -0.061404 6.235629 2.712462 -7.689322 12.542614 0.000000 0.000000 0.000000 -0.062738 -1.135613 14.052992 -5.102142 1.298603 5.057220 5.755534 5.986756 2.896402 0.000000 0.000000 0.000000 -12.461431 6.953029 5.702214 0.000000 0.000000 0.000000 22.854785 -18.922344 -10.436086 -11.008605 -3.944283 -27.524536 16.171488 7.128657 9.848765 0.000000 0.000000 0.000000 -34.639500 34.051237 -28.134165 27.886701 3.992202 -7.688725 -8.573156 -4.497075 1.149040 
0.033585 0.972182 -0.054214 -7.135634 -4.220810 4.466536 0.000000 0.000000 0.000000 3.431104 -2.248914 -9.513326 3.102410 -0.469807 4.285896 -5.779016 -7.023321 5.897976 0.000000 0.000000 0.000000 1.942360 1.802634 -10.234688 2.270787 -0.069827 6.198222 2.678875 -8.166053 13.003063 0.000000 0.000000 0.000000 -0.859860 -0.941298 15.135686 -4.795223 1.261097 5.352127 6.479030 6.144534 2.845642 0.000000 0.000000 0.000000 -12.897819 7.162748 5.486259 0.000000 0.000000 0.000000 24.493140 -20.159157 -11.531636 -10.998459 -4.489226 -30.428541 16.738219 7.366191 12.148411 0.000000 0.000000 0.000000 -35.870848 35.175652 -29.927465 28.068092 5.513283 -11.469570 -11.479554 -6.520800 5.269617 
0.038998 0.972399 -0.055637 -7.307050 -3.937972 5.161301 0.000000 0.000000 0.000000 3.372641 -2.423075 -10.351997 3.085928 -0.454754 4.020725 -5.882220 -7.049516 6.040135 0.000000 0.000000 0.000000 1.794338 1.977865 -11.183757 2.294792 -0.074804 6.254012 2.576789 -8.607053 13.273253 0.000000 0.000000 0.000000 -1.410619 -0.800964 15.895456 -4.533546 1.217646 5.490140 6.947032 6.240081 2.708400 0.000000 0.000000 0.000000 -13.074943 7.211217 5.153512 0.000000 0.000000 0.000000 25.583702 -20.916736 -12.231292 -10.790370 -4.772828 -32.132002 16.628084 7.360264 13.016947 0.000000 0.000000 0.000000 -36.448276 35.629549 -30.718204 27.993899 6.602581 -14.224395 -13.445810 -7.744015 8.202501 
0.044279 0.972613 -0.055104 -7.325302 -3.434591 5.620061 0.000000 0.000000 0.000000 3.181374 -2.562275 -11.000466 3.012366 -0.441793 3.943676 -6.054708 -7.312357 6.147233 0.000000 0.000000 0.000000 1.561391 2.064437 -11.696873 2.227368 -0.065237 6.257536 2.403773 -9.147680 13.527290 0.000000 0.000000 0.000000 -1.812601 -0.702201 16.369220 -4.244401 1.157055 5.506646 7.241779 6.272297 2.610479 0.000000 0.000000 0.000000 -12.983782 7.097009 4.735568 0.000000 0.000000 0.000000 26.149415 -21.425648 -12.678493 -10.578958 -4.904021 -33.056408 16.234163 7.251096 12.999040 0.000000 0.000000 0.000000 -36.413774 35.587647 -30.718280 27.745134 7.127563 -15.661805 -14.584688 -8.449318 10.389057 
0.049019 0.972865 -0.053413 -7.291053 -2.830162 5.834888 0.000000 0.000000 0.000000 2.961689 -2.651041 -11.391778 2.899138 -0.429812 3.984947 -6.254976 -7.697101 6.222916 0.000000 0.000000 0.000000 1.348612 2.070582 -11.785278 2.112777 -0.049639 6.195778 2.192048 -9.681520 13.707431 0.000000 0.000000 0.000000 -2.074894 -0.645173 16.596475 -4.026080 1.112581 5.534049 7.400091 6.251582 2.547241 0.000000 0.000000 0.000000 -12.692240 6.880732 4.371982 0.000000 0.000000 0.000000 26.430134 -21.860953 -13.042524 -10.482765 -4.946997 -33.358648 15.674151 7.088526 13.056652 0.000000 0.000000 0.000000 -36.393762 35.296891 -30.439309 27.683193 7.011566 -15.398136 -14.783904 -8.521037 10.377869 
0.052958 0.972705 -0.051239 -7.232616 -2.260586 5.828027 0.000000 0.000000 0.000000 2.774425 -2.670204 -11.450064 2.736900 -0.408298 3.946219 -6.451085 -8.133317 6.263936 0.000000 0.000000 0.000000 1.126598 2.029945 -11.621784 2.075904 -0.046377 6.212141 1.944645 -10.148018 13.722484 0.000000 0.000000 0.000000 -2.293789 -0.593274 16.662507 -3.905641 1.084387 5.505772 7.434973 6.105214 2.609014 0.000000 0.000000 0.000000 -12.158371 6.527244 3.828761 0.000000 0.000000 0.000000 26.278552 -22.168438 -13.281568 -10.524775 -4.875069 -32.920514 15.490389 6.997931 12.064864 0.000000 0.000000 0.000000 -35.958133 34.755977 -29.696141 27.738314 6.458908 -13.995883 -14.463278 -8.110086 7.923076 
0.056292 0.971898 -0.048967 -7.260791 -1.754202 5.700257 0.000000 0.000000 0.000000 2.714800 -2.637778 -11.278312 2.603808 -0.383629 3.756321 -6.658488 -8.571494 6.324972 0.000000 0.000000 0.000000 0.990110 1.984773 -11.407550 2.116356 -0.050888 6.406883 1.700505 -10.509640 13.613319 0.000000 0.000000 0.000000 -2.353957 -0.596770 16.667386 -3.794083 1.038656 5.238588 7.437788 5.942733 2.815565 0.000000 0.000000 0.000000 -11.655702 6.198968 3.230121 0.000000 0.000000 0.000000 25.570298 -22.201577 -13.237119 -10.910099 -4.783999 -32.030913 15.808300 7.008422 9.691422 0.000000 0.000000 0.000000 -34.994587 34.048000 -28.582765 27.626084 5.887812 -12.642488 -13.971921 -7.566189 5.163394 
